<?xml version="1.0" encoding="utf-8"?>
<!-- Generator: Adobe Illustrator 24.2.0, SVG Export Plug-In . SVG Version: 6.00 Build 0)  -->
<svg version="1.1" id="Calque_1" xmlns="http://www.w3.org/2000/svg" xmlns:xlink="http://www.w3.org/1999/xlink" x="0px" y="0px"
	 viewBox="0 0 118.99 190.9" style="enable-background:new 0 0 118.99 190.9;" xml:space="preserve">
<g>
	<path d="M86.37,97.5c0,1.74,0,3.48,0,5.21c0,24.22,0.03,48.45-0.04,72.67c-0.01,2.79-0.18,5.71-1,8.34
		c-1.47,4.72-7.34,7.78-12.47,7c-5.94-0.91-9.88-5.11-9.94-11.2c-0.14-14.1-0.06-28.21-0.07-42.31c0-1.79,0-3.59,0-5.72
		c-2.13,0-3.86,0-6.35,0c0,1.71,0,3.47,0,5.22c0,13.61,0.12,27.21-0.05,40.82c-0.13,10.17-7.85,15.85-16.46,12.32
		c-5.3-2.17-7.05-6.47-7.04-11.97c0.07-25.05,0.03-50.11,0.03-75.16c0-1.77,0-3.55,0-5.32c-0.36-0.14-0.72-0.29-1.08-0.43
		c-3.22,5.24-6.33,10.54-9.68,15.69c-4.22,6.48-10.17,8.09-16.15,4.61c-5.61-3.26-7.79-9.32-4.55-14.9
		C9.43,88.77,17.42,75.2,25.96,61.99c5.51-8.53,14.11-13.21,24.18-13.86c7.72-0.5,15.64-0.35,23.27,0.8
		c9.09,1.37,16.15,6.9,21,14.65c7.82,12.5,15.36,25.18,22.82,37.9c3.4,5.79,1.7,12.22-3.67,15.69c-5.2,3.36-11.46,2.44-15.4-2.97
		c-3.89-5.34-7.11-11.16-10.63-16.77C87.15,97.45,86.76,97.48,86.37,97.5z"/>
	<path d="M77.22,17.57c0.15,9.54-8.02,17.88-17.58,17.94c-9.36,0.06-17.44-7.86-17.67-17.31C41.75,8.51,49.55,0.3,59.27,0.01
		C68.69-0.28,77.07,7.92,77.22,17.57z"/>
</g>
</svg>
