<?xml version="1.0" encoding="utf-8"?>
<!-- Generator: Adobe Illustrator 24.2.0, SVG Export Plug-In . SVG Version: 6.00 Build 0)  -->
<svg version="1.1" id="Calque_1" xmlns="http://www.w3.org/2000/svg" xmlns:xlink="http://www.w3.org/1999/xlink" x="0px" y="0px"
	 viewBox="0 0 239.05 190.95" style="enable-background:new 0 0 239.05 190.95;" xml:space="preserve">
<g>
	<path d="M83.92,177.79c0.59-2.28,1.41-5.81,2.41-9.29c14.85-51.99,29.71-103.98,44.65-155.94c0.85-2.97,2.02-6.06,3.85-8.48
		c3.2-4.21,8.8-5.13,13.5-2.93c5.14,2.4,7.96,7.24,6.51,13.07c-2.75,11.06-6,22.01-9.13,32.98c-12.61,44.2-25.25,88.4-37.9,132.59
		c-2.75,9.62-9.88,13.55-17.39,9.71C86.19,187.34,84.1,183.84,83.92,177.79z"/>
	<path d="M28.39,94.35c11.8,12.04,22.47,22.96,33.17,33.84c3.58,3.64,4.71,7.9,3.36,12.77c-1.23,4.46-4.49,7.62-8.79,7.62
		c-3.79,0-8.6-1.11-11.21-3.57C30.93,131.77,17.4,118.05,3.91,104.3c-5.28-5.38-5.2-12.41,0.13-17.83
		c13.51-13.73,27.13-27.35,40.89-40.82c5.31-5.2,12.79-5.05,17.43-0.24c4.53,4.7,4.24,12.19-0.96,17.42
		c-9.48,9.54-19.07,18.97-28.68,28.38C31.43,92.48,29.77,93.36,28.39,94.35z"/>
	<path d="M209.28,95.48c-10.03-10.37-20.37-20.9-30.49-31.65c-2.08-2.21-4.04-5.03-4.78-7.89c-1.18-4.6,0.27-8.95,4.41-11.81
		c4.19-2.9,8.68-3.12,13.11-0.49c1.41,0.83,2.67,1.97,3.84,3.13c12.94,12.88,25.89,25.77,38.77,38.72
		c6.53,6.56,6.54,13.4,0.02,19.95c-12.88,12.95-25.81,25.85-38.76,38.72c-6.1,6.06-13.52,6.59-18.52,1.45
		c-4.84-4.97-4.05-12.53,1.82-18.56C189,116.46,199.25,105.84,209.28,95.48z"/>
</g>
</svg>
