<?xml version="1.0" encoding="utf-8"?>
<!-- Generator: Adobe Illustrator 24.2.0, SVG Export Plug-In . SVG Version: 6.00 Build 0)  -->
<svg version="1.1" xmlns="http://www.w3.org/2000/svg" xmlns:xlink="http://www.w3.org/1999/xlink" x="0px" y="0px"
	 viewBox="0 0 283.46 223.67" style="enable-background:new 0 0 283.46 223.67;" xml:space="preserve">
<g id="Calque_1">
</g>
<g id="Calque_2">
	<path id="gear" d="M138.62,92.13c-0.62-0.54-1.04-0.96-1.28-1.14c-1.84-1.36-4.9-3.86-10.32-8.73c0.44-2.8,0.66-5.67,0.66-8.59
		c0-3.22-0.29-6.38-0.82-9.45c5.27-4.73,8.28-7.19,10.09-8.53c0.23-0.17,0.66-0.59,1.28-1.14c2.33-2.05,3.81-5.85,2.48-8.79
		c-0.17-0.38-0.29-0.52-0.78-1.33l-9.26-15.82c-0.47-0.83-0.54-1-0.78-1.33c-1.92-2.61-5.99-3.25-8.96-2.28
		c-0.78,0.25-1.37,0.41-1.64,0.52c-2.11,0.89-5.85,2.26-12.85,4.45c-4.74-3.76-10.1-6.8-15.91-8.92
		c-1.52-6.86-2.17-10.64-2.44-12.86c-0.04-0.28-0.19-0.86-0.36-1.66c-0.64-3.02-3.24-6.18-6.49-6.51c-0.42-0.04-0.6-0.01-1.56,0
		H61.15c-0.96-0.01-1.15-0.04-1.56,0c-3.25,0.33-5.85,3.49-6.49,6.51c-0.17,0.8-0.33,1.37-0.36,1.66
		c-0.28,2.25-0.94,6.12-2.51,13.18c-5.77,2.21-11.09,5.31-15.77,9.14c-6.79-2.13-10.45-3.47-12.53-4.35
		c-0.27-0.11-0.85-0.27-1.64-0.52c-2.97-0.96-7.05-0.32-8.96,2.28c-0.25,0.33-0.31,0.51-0.78,1.33L1.28,45.08
		c-0.49,0.81-0.61,0.96-0.78,1.33c-1.33,2.94,0.14,6.74,2.48,8.79c0.62,0.54,1.04,0.96,1.28,1.14c1.84,1.36,4.9,3.86,10.32,8.73
		c-0.44,2.8-0.66,5.67-0.66,8.59c0,3.22,0.29,6.37,0.82,9.45c-5.27,4.73-8.28,7.19-10.09,8.53c-0.23,0.17-0.66,0.59-1.28,1.14
		c-2.33,2.05-3.81,5.85-2.48,8.79c0.17,0.38,0.29,0.52,0.78,1.33l9.26,15.82c0.47,0.83,0.54,1,0.78,1.33
		c1.92,2.61,5.99,3.25,8.96,2.28c0.78-0.25,1.37-0.41,1.64-0.52c2.11-0.89,5.85-2.26,12.85-4.45c4.74,3.76,10.1,6.8,15.91,8.92
		c1.52,6.86,2.17,10.64,2.44,12.86c0.04,0.28,0.19,0.86,0.36,1.66c0.64,3.02,3.24,6.18,6.49,6.51c0.42,0.04,0.6,0.01,1.56,0h18.53
		c0.96,0.01,1.15,0.04,1.56,0c3.25-0.33,5.85-3.49,6.49-6.51c0.17-0.8,0.33-1.37,0.36-1.66c0.28-2.25,0.94-6.12,2.51-13.18
		c5.77-2.21,11.09-5.31,15.77-9.14c6.79,2.13,10.45,3.47,12.53,4.35c0.27,0.11,0.85,0.27,1.64,0.52c2.97,0.96,7.05,0.32,8.96-2.28
		c0.25-0.33,0.31-0.51,0.78-1.33l9.26-15.82c0.49-0.81,0.61-0.96,0.78-1.33C142.42,97.98,140.95,94.18,138.62,92.13z M70.8,95.89
		c-12.45,0-22.54-9.95-22.54-22.22S58.35,51.45,70.8,51.45s22.54,9.95,22.54,22.22S83.25,95.89,70.8,95.89z"/>
	<path id="gear_1_" d="M276.84,136.42c-0.81-0.17-1.39-0.32-1.68-0.36c-2.28-0.27-6.2-0.93-13.36-2.48
		c-1.04-2.64-2.3-5.24-3.78-7.77c-1.63-2.79-3.48-5.38-5.5-7.78c2.17-6.7,3.53-10.31,4.41-12.36c0.11-0.26,0.27-0.84,0.53-1.61
		c0.98-2.93,0.33-6.95-2.31-8.84c-0.34-0.24-0.51-0.31-1.35-0.77l-16.05-9.13c-0.82-0.49-0.97-0.6-1.35-0.77
		c-2.98-1.31-6.84,0.14-8.92,2.44c-0.55,0.61-0.98,1.03-1.15,1.26c-1.38,1.81-3.92,4.84-8.87,10.18c-6.01-0.92-12.19-0.91-18.3,0.12
		c-4.79-5.19-7.28-8.15-8.63-9.93c-0.17-0.23-0.6-0.65-1.15-1.26c-2.08-2.3-5.94-3.75-8.92-2.44c-0.38,0.17-0.53,0.28-1.35,0.77
		l-16.05,9.13c-0.84,0.46-1.01,0.53-1.35,0.77c-2.64,1.89-3.29,5.91-2.31,8.84c0.26,0.77,0.41,1.35,0.53,1.61
		c0.9,2.08,2.29,5.76,4.51,12.65c-3.88,4.76-6.91,10.06-9.02,15.69c-6.96,1.5-10.81,2.14-13.06,2.41c-0.29,0.03-0.87,0.19-1.68,0.36
		c-3.06,0.63-6.27,3.19-6.61,6.39c-0.04,0.41-0.02,0.59,0,1.54v18.27c-0.02,0.95-0.04,1.13,0,1.54c0.34,3.2,3.54,5.77,6.61,6.39
		c0.81,0.17,1.39,0.32,1.68,0.36c2.28,0.27,6.2,0.93,13.36,2.48c1.04,2.64,2.3,5.24,3.78,7.77c1.63,2.79,3.48,5.38,5.5,7.78
		c-2.17,6.7-3.53,10.31-4.41,12.36c-0.11,0.26-0.27,0.84-0.53,1.61c-0.98,2.93-0.33,6.95,2.31,8.84c0.34,0.24,0.51,0.31,1.35,0.77
		l16.05,9.13c0.82,0.49,0.97,0.6,1.35,0.77c2.98,1.31,6.84-0.14,8.92-2.44c0.55-0.61,0.98-1.03,1.15-1.26
		c1.38-1.81,3.92-4.84,8.87-10.18c6.01,0.92,12.19,0.91,18.3-0.12c4.79,5.19,7.28,8.15,8.63,9.93c0.17,0.23,0.6,0.65,1.15,1.26
		c2.08,2.3,5.94,3.75,8.92,2.44c0.38-0.17,0.53-0.28,1.35-0.77l16.05-9.13c0.84-0.46,1.01-0.53,1.35-0.77
		c2.64-1.89,3.29-5.91,2.31-8.84c-0.26-0.77-0.41-1.35-0.53-1.61c-0.9-2.08-2.29-5.76-4.51-12.65c3.88-4.76,6.91-10.06,9.02-15.69
		c6.96-1.5,10.81-2.14,13.06-2.41c0.29-0.03,0.87-0.19,1.68-0.36c3.06-0.63,6.27-3.19,6.61-6.39c0.04-0.41,0.02-0.59,0-1.54l0-18.27
		c0.02-0.95,0.04-1.13,0-1.54C283.1,139.61,279.9,137.05,276.84,136.42z M220.01,173.11c-10.78,6.14-24.56,2.49-30.79-8.13
		c-6.22-10.63-2.53-24.22,8.25-30.35c10.78-6.14,24.56-2.49,30.79,8.13C234.48,153.38,230.79,166.97,220.01,173.11z"/>
</g>
</svg>
