<?xml version="1.0" encoding="utf-8"?>
<!-- Generator: Adobe Illustrator 24.2.0, SVG Export Plug-In . SVG Version: 6.00 Build 0)  -->
<svg version="1.1" id="Calque_1" xmlns="http://www.w3.org/2000/svg" xmlns:xlink="http://www.w3.org/1999/xlink" x="0px" y="0px"
	 viewBox="0 0 191.52 191.67" style="enable-background:new 0 0 191.52 191.67;" xml:space="preserve">
<g>
	<g>
		<path d="M47.43,48.44c0,31.88,0,63.3,0,95.08c-15.74,0-31.27,0-47.11,0c0-31.63,0-63.18,0-95.08
			C15.89,48.44,31.44,48.44,47.43,48.44z"/>
		<path d="M110.99,56.04c15.28-4.08,30.28-8.1,46.09-12.33c8.22,30.73,16.37,61.22,24.66,92.22c-15.25,4.11-30.09,8.11-45.7,12.31
			C127.7,117.54,119.42,87.06,110.99,56.04z"/>
		<path d="M106.9,48.47c0,31.78,0,63.21,0,95.03c-15.49,0-30.85,0-46.55,0c0-31.55,0-63.1,0-95.03C75.64,48.47,91,48.47,106.9,48.47
			z"/>
		<path d="M106.66,7.88c8.76-2.4,16.9-4.72,25.09-6.85c8.24-2.15,13.43,0.79,16.16,8.89c0.21,0.63,0.39,1.27,0.57,1.91
			c1.77,6.4,3.54,12.8,5.49,19.85c-15.23,4.07-30.36,8.12-45.86,12.27c-0.89-2.74-1.7-5.2-2.62-8.05c-14.94,0-29.89,0-44.98,0
			c0-9.01-0.44-17.64,0.15-26.19c0.4-5.74,5.04-9.34,11.08-9.53c7.82-0.25,15.66-0.21,23.49-0.02
			C100.45,0.29,104.42,2.8,106.66,7.88z"/>
		<path d="M106.64,155.94c0,8.22,0.49,16.53-0.15,24.76c-0.56,7.19-4.53,10.17-11.69,10.24c-7.66,0.07-15.33,0.11-22.99-0.02
			c-7.42-0.12-11.67-4.45-11.77-11.92c-0.1-7.48-0.02-14.97-0.02-23.06C75.43,155.94,90.89,155.94,106.64,155.94z"/>
		<path d="M139.16,160.26c15.25-4.1,30.13-8.1,45.82-12.33c2.2,8.56,4.78,16.92,6.39,25.47c0.98,5.19-2.85,9.82-8.36,11.47
			c-7.3,2.19-14.66,4.22-22.05,6.14c-8.19,2.13-13.35-0.85-16.06-9c-0.16-0.47-0.36-0.93-0.48-1.41
			C142.71,174.03,141.01,167.44,139.16,160.26z"/>
		<path d="M0.17,35.31c0-9.02-0.35-17.48,0.13-25.89C0.6,4.2,5.41,0.35,11.12,0.19c8.32-0.24,16.65-0.25,24.96,0
			c6.45,0.19,10.75,4.05,11.21,10.47c0.53,7.29,0.35,14.63,0.2,21.95c-0.02,0.92-1.69,2.58-2.61,2.59
			C30.12,35.36,15.35,35.31,0.17,35.31z"/>
		<path d="M46.84,156.46c0,8.12,0.26,15.93-0.08,23.7c-0.29,6.53-4.9,10.67-11.39,10.76c-7.97,0.12-15.95,0.13-23.93,0
			c-6.83-0.11-11.26-4.49-11.37-11.22c-0.13-7.63-0.03-15.26-0.03-23.25C15.82,156.46,31.34,156.46,46.84,156.46z"/>
	</g>
</g>
</svg>
