<?xml version="1.0" encoding="utf-8"?>
<!-- Generator: Adobe Illustrator 24.2.1, SVG Export Plug-In . SVG Version: 6.00 Build 0)  -->
<svg version="1.1" id="Calque_1" xmlns="http://www.w3.org/2000/svg" xmlns:xlink="http://www.w3.org/1999/xlink" x="0px" y="0px"
	 viewBox="0 0 400 400" style="enable-background:new 0 0 400 400;" xml:space="preserve">
<style type="text/css">
	.st0{fill:#FFFFFF;stroke:#000000;stroke-width:3;stroke-miterlimit:10;}
</style>
<g>
	<path class="st0" d="M183.63,216.14v-58.73c0-15.2-3.14-28.58-9.41-40.13c-6.27-11.55-15.14-20.48-26.59-26.8
		c-11.45-6.32-24.69-9.48-39.7-9.48c-15.02,0-28.25,3.16-39.7,9.48c-11.45,6.32-20.31,15.25-26.59,26.8
		c-6.27,11.55-9.41,24.92-9.41,40.13v58.73c0,15.21,3.14,28.58,9.41,40.13c6.27,11.54,15.13,20.48,26.59,26.8
		c11.45,6.32,24.68,9.48,39.7,9.48c15.01,0,28.25-3.16,39.7-9.48c3.83-2.11,7.34-4.54,10.59-7.24l23.69,18l20.81-26.51l-24.89-18.87
		C181.69,238.79,183.63,228.03,183.63,216.14z M107.94,253.49c-7.03,0-13.21-1.5-18.53-4.49c-5.32-2.99-9.43-7.25-12.33-12.76
		c-2.9-5.51-4.35-11.88-4.35-19.1v-60.73c0-7.22,1.45-13.59,4.35-19.1c2.9-5.51,7.01-9.77,12.33-12.76
		c5.32-2.99,11.5-4.49,18.53-4.49c7.03,0,13.21,1.5,18.53,4.49c5.32,2.99,9.43,7.25,12.33,12.76c2.9,5.51,4.35,11.88,4.35,19.1
		v60.73c0,1.66-0.09,3.26-0.24,4.83l-20.29-15.38l-20.81,26.37l22.54,17.13C119.53,252.35,114.06,253.49,107.94,253.49z"/>
	<path class="st0" d="M268.66,137.66c2.71-5.75,6.63-10.12,11.76-13.11c5.13-2.99,11.36-4.49,18.67-4.49
		c5.61,0,10.67,1.28,15.18,3.85c4.51,2.57,8.36,6.27,11.55,11.12c3.18,4.85,5.53,10.69,7.06,17.53h40.48
		c-2.57-15.11-7.2-28.01-13.9-38.7c-6.7-10.69-15.18-18.84-25.45-24.45C323.76,83.8,312.12,81,299.1,81
		c-15.78,0-29.27,3.04-40.48,9.12c-11.21,6.08-19.77,14.9-25.66,26.44c-5.89,11.55-8.84,25.49-8.84,41.84v56.88
		c0,16.35,2.94,30.29,8.84,41.84c5.89,11.55,14.44,20.34,25.66,26.37c11.21,6.04,24.71,9.05,40.48,9.05
		c13.02,0,24.64-2.8,34.85-8.41c10.21-5.6,18.67-13.76,25.37-24.45s11.38-23.59,14.04-38.7h-40.48c-1.43,6.94-3.71,12.83-6.84,17.68
		c-3.14,4.85-6.98,8.53-11.55,11.05c-4.56,2.52-9.69,3.78-15.4,3.78c-7.32,0-13.54-1.5-18.67-4.49c-5.13-2.99-9.05-7.34-11.76-13.04
		c-2.71-5.7-4.06-12.59-4.06-20.67V158.4C264.6,150.33,265.96,143.41,268.66,137.66z"/>
</g>
</svg>
