<svg xmlns="http://www.w3.org/2000/svg" xmlns:xlink="http://www.w3.org/1999/xlink" viewBox="0 0 529.58 519.64"><defs><style>.cls-1,.cls-17{fill:none;}.cls-2{fill:#73bbe1;}.cls-3{clip-path:url(#clip-path);}.cls-4{fill:#3e7faa;}.cls-5,.cls-6{fill:#fff;}.cls-5{stroke:#3e7faa;}.cls-17,.cls-5{stroke-miterlimit:10;}.cls-7{clip-path:url(#clip-path-2);}.cls-8{fill:#cecdcd;}.cls-9{fill:#1f2d57;}.cls-10{fill:#ceeaf9;}.cls-11{fill:#392c30;}.cls-12{fill:#8ccdf1;}.cls-13{fill:#27a75a;}.cls-14{fill:#f9c739;}.cls-15{fill:#dd3d30;}.cls-16{fill:#8b368c;}.cls-17{stroke:#fff;stroke-width:3px;}.cls-18{fill:#cba9b1;}</style><clipPath id="clip-path"><circle class="cls-1" cx="256" cy="256" r="256"/></clipPath><clipPath id="clip-path-2"><path class="cls-1" d="M295.16,351.74a39.17,39.17,0,0,1,2.47-13.92H213.25a39.17,39.17,0,0,1,2.48,13.92,38.44,38.44,0,0,1-3.19,15.62h85.8A38.6,38.6,0,0,1,295.16,351.74Z"/></clipPath></defs><g id="Background"><circle class="cls-2" cx="256" cy="256" r="256"/><g class="cls-3"><polygon class="cls-4" points="399.06 129.13 529.58 261.68 516.51 473.61 298.34 519.64 110.61 335 399.06 129.13"/></g></g><g id="Screen"><rect class="cls-5" x="185.56" y="367.36" width="139.77" height="17.61"/><path class="cls-6" d="M295.16,351.74a39.17,39.17,0,0,1,2.47-13.92H213.25a39.17,39.17,0,0,1,2.48,13.92,38.44,38.44,0,0,1-3.19,15.62h85.8A38.6,38.6,0,0,1,295.16,351.74Z"/><g class="cls-7"><polygon class="cls-8" points="192.92 332.7 271.23 352.31 305.72 370.49 313.67 334.69 192.92 332.7"/></g><rect class="cls-6" x="109.12" y="127.02" width="292.05" height="210.8" rx="7.19"/></g><g id="Calque_4" data-name="Calque 4"><rect class="cls-9" x="125.6" y="145.77" width="259.09" height="164.77"/><rect class="cls-10" x="131.28" y="148.61" width="248.86" height="16.48"/><rect class="cls-11" x="131.28" y="169.58" width="248.86" height="137"/><rect class="cls-12" x="298.21" y="195.06" width="44.66" height="7.4"/><rect class="cls-6" x="185.56" y="179.72" width="25.8" height="7.4"/><rect class="cls-13" x="217.32" y="195.06" width="33.15" height="7.4"/><rect class="cls-14" x="166.9" y="195.2" width="45.65" height="7.4"/><rect class="cls-14" x="189.72" y="208.91" width="32.09" height="7.4"/><rect class="cls-12" x="189.72" y="232.45" width="32.09" height="7.4"/><rect class="cls-12" x="189.72" y="242.92" width="32.09" height="7.4"/><rect class="cls-15" x="189.47" y="253.77" width="55.91" height="7.4"/><rect class="cls-14" x="188.44" y="267.23" width="34.52" height="7.4"/><rect class="cls-13" x="252.8" y="253.77" width="45.54" height="7.4"/><rect class="cls-15" x="230.16" y="232.45" width="52.68" height="7.4"/><rect class="cls-14" x="287.75" y="232.45" width="52.29" height="7.4"/><rect class="cls-6" x="227.64" y="209.28" width="51.64" height="7.4"/><rect class="cls-16" x="285.11" y="209.28" width="38.2" height="7.4"/><rect class="cls-6" x="185.6" y="179.72" width="25.76" height="7.4"/><rect class="cls-16" x="255.25" y="195.06" width="38.18" height="7.4"/><circle class="cls-1" cx="148.6" cy="156.85" r="4.99"/><circle class="cls-15" cx="148.6" cy="156.85" r="4.99"/><circle class="cls-14" cx="161.86" cy="156.85" r="4.99"/><circle class="cls-13" cx="175.12" cy="156.85" r="4.99"/><path class="cls-6" d="M181.67,190.19l-11.77-5.12v-2.84l11.77-5.09v3.34l-8.21,3.14,8.21,3.25Z"/><path class="cls-6" d="M217.25,190.2v-3.31l8.23-3.24-8.23-3.2v-3.29l11.79,5.1v2.81Z"/><path class="cls-6" d="M191.5,298.59l-14.73-6.4v-3.54l14.73-6.38v4.18l-10.27,3.92,10.27,4.08Z"/><path class="cls-6" d="M195.56,301.41l5.32-22.21H204l-5.38,22.21Z"/><path class="cls-6" d="M208,298.61v-4.15l10.28-4-10.28-4V282.3l14.73,6.38v3.51Z"/><path class="cls-6" d="M168.87,234.46l4.25-17.76h2.47l-4.3,17.76Z"/><path class="cls-6" d="M178.84,232.22v-3.31l8.23-3.24-8.23-3.2v-3.29l11.79,5.1v2.81Z"/><line class="cls-17" x1="159.92" y1="169.58" x2="159.92" y2="306.58"/><polygon class="cls-15" points="141.02 191.95 136.98 183.87 145.06 183.87 141.02 191.95"/><polygon class="cls-15" points="141.02 254.36 136.98 246.28 145.06 246.28 141.02 254.36"/><rect class="cls-6" x="135.12" y="174.96" width="16.97" height="6.87"/><rect class="cls-6" x="135.12" y="237.22" width="16.97" height="6.87"/><rect class="cls-18" x="142.01" y="195.06" width="11.59" height="5.21"/><rect class="cls-18" x="142.01" y="204.7" width="11.59" height="5.21"/><rect class="cls-18" x="142.01" y="214.33" width="11.59" height="5.21"/><rect class="cls-18" x="142.01" y="255.36" width="11.59" height="5.21"/><rect class="cls-18" x="142.01" y="265" width="11.59" height="5.21"/><rect class="cls-18" x="142.01" y="274.63" width="11.59" height="5.21"/></g></svg>